<svg width="128px" height="128px" version="1.1" id="Layer_1" xmlns="http://www.w3.org/2000/svg" xmlns:xlink="http://www.w3.org/1999/xlink" x="0px" y="0px" viewBox="0 0 21 20" enable-background="new 0 0 21 20" xml:space="preserve">
<g>
	<g>
		<path fill-rule="evenodd" clip-rule="evenodd" fill="#444444" d="M9.5,16.6l1,0.7l1.1-0.7v-3.1H9.5V16.6z M14.6,7.4l-1.4-1.8H7.8
			L6.4,7.4h3v5.7l-1.1-0.9V8.1H6.5v5l1.6,1.5l1.4-1.3v0.2h2.2v-0.2l1.4,1.3l1.6-1.5V8h-1.8v4.2l-1.1,0.9V7.4H14.6z M16.2,13.7v-2.6
			L21,7.5l-4.8-0.1V6l-3.2-2h-1L10.5,0L9.1,4.1H8L4.9,6v1.3L0,7.5l4.9,3.6v2.6l0.7,0.8L4,19.6L7.8,17l2.7,3l2.7-3l3.8,2.6l-1.6-5
			L16.2,13.7z M12.6,16.6l-2.1,2.3l-5-5.5l0-6.9l2.7-1.8h4.6l2.7,1.8v6.9L12.6,16.6z"></path>
	</g>
</g>
</svg>